#
#
#

mtllib disk.mtl


#
# pCube2 メッシュ
#
g pCube2 メッシュ


#
# pCube2 メッシュ_initialShadingGroup
#
usemtl pCube2 メッシュ_initialShadingGroup

v -0.500000 0.504542 -0.041030
v -0.500000 0.504542 0.045805
v -0.500000 0.918941 0.045805
v -0.500000 0.918941 -0.041030
v -0.374513 0.504542 -0.015098
v -0.374513 0.918941 -0.015098
v -0.216361 0.918941 -0.015098
v -0.216361 0.504542 -0.015098
v -0.374513 0.918941 0.018655
v -0.374513 0.504542 0.018655
v -0.216361 0.504542 0.018655
v -0.216361 0.918941 0.018655
v -0.500000 1.106365 0.045805
v -0.500000 1.106365 -0.041030
v 0.447874 0.504542 -0.041030
v 0.472821 0.525627 -0.041030
v 0.472821 0.525627 0.045805
v 0.446362 0.504542 0.045805
v 0.500000 0.558271 -0.041030
v 0.500000 0.557352 0.045805
v -0.374513 0.918941 -0.041030
v -0.374513 1.106365 -0.041030
v -0.216361 1.106365 -0.041030
v -0.216361 0.918941 -0.041030
v -0.216361 0.504542 -0.016337
v -0.216361 0.918941 -0.016337
v 0.164874 0.918941 -0.016337
v 0.164874 0.504542 -0.016337
v -0.216361 0.918941 0.018586
v -0.216361 0.504542 0.018586
v 0.164874 0.504542 0.018586
v 0.164874 0.918941 0.018586
v -0.500000 1.302429 0.045805
v -0.500000 1.302429 -0.041030
v -0.374513 1.302429 -0.041030
v -0.216361 1.302429 -0.041030
v 0.164874 0.918941 -0.041030
v -0.500000 1.420095 0.045805
v -0.500000 1.420095 -0.041030
v 0.164874 1.106365 -0.041030
v 0.164874 0.918941 0.045805
v -0.216361 0.918941 0.045805
v 0.164874 0.918941 0.045805
v -0.216361 0.918941 0.045805
v -0.374513 1.420094 -0.041030
v -0.216361 1.420095 -0.041030
v 0.164874 1.302429 -0.041030
v -0.500000 1.504542 0.045805
v -0.468841 1.504542 0.045805
v -0.407103 1.504542 0.045805
v -0.216361 1.504542 0.045805
v -0.216361 1.504542 -0.041030
v -0.374513 1.504542 -0.041030
v -0.500000 1.504542 -0.041030
v 0.500000 0.918941 -0.041030
v 0.500000 0.918941 0.045805
v 0.332430 0.918941 -0.041030
v 0.332430 1.106365 -0.041030
v 0.500000 1.106365 -0.041030
v 0.164874 1.420095 -0.041030
v 0.500000 1.106365 0.045805
v 0.332430 1.106365 0.045805
v 0.332430 0.918941 0.045805
v 0.332430 1.302429 -0.041030
v 0.500000 1.302429 -0.041030
v 0.164874 1.504542 0.045805
v 0.164874 1.504542 -0.041030
v -0.216361 1.504542 0.045805
v 0.164874 1.504542 0.045805
v 0.500000 1.302429 0.045805
v 0.332430 1.302429 0.045805
v 0.332430 1.420095 -0.041030
v 0.500000 1.420095 -0.041030
v -0.216361 1.417654 0.045805
v -0.216361 1.302429 0.045805
v 0.500000 1.420095 0.045805
v 0.332430 1.420095 0.045805
v 0.332430 1.504542 -0.041030
v 0.332430 1.504542 0.045805
v 0.500000 1.504542 0.045805
v 0.500000 1.504542 -0.041030
v -0.407469 1.419299 0.045805
v 0.317718 0.504542 -0.041030
v 0.316901 0.504542 0.045805
v 0.164874 1.106365 0.045805
v 0.164874 1.302429 0.045805
v 0.164874 1.420095 0.045805
v 0.164874 1.445748 0.045805
v 0.154475 1.110669 0.045805
v 0.153257 1.091308 0.045805
v 0.149622 1.072252 0.045805
v 0.143628 1.053803 0.045805
v 0.135368 1.036250 0.045805
v 0.124973 1.019870 0.045805
v 0.112608 1.004923 0.045805
v 0.098466 0.991643 0.045805
v 0.082772 0.980241 0.045805
v 0.065772 0.970895 0.045805
v 0.047736 0.963754 0.045805
v 0.028946 0.958929 0.045805
v 0.009700 0.956498 0.045805
v -0.009700 0.956498 0.045805
v -0.028946 0.958929 0.045805
v -0.047736 0.963754 0.045805
v -0.065772 0.970895 0.045805
v -0.082772 0.980241 0.045805
v -0.098466 0.991643 0.045805
v -0.112608 1.004923 0.045805
v -0.124973 1.019870 0.045805
v -0.135368 1.036250 0.045805
v -0.143628 1.053802 0.045805
v -0.149622 1.072252 0.045805
v -0.153257 1.091308 0.045805
v -0.154476 1.110669 0.045805
v -0.153257 1.130030 0.045805
v -0.149622 1.149085 0.045805
v -0.143628 1.167535 0.045805
v -0.135368 1.185088 0.045805
v -0.124973 1.201467 0.045805
v -0.112608 1.216415 0.045805
v -0.098466 1.229694 0.045805
v -0.082772 1.241097 0.045805
v -0.065773 1.250443 0.045805
v -0.047736 1.257584 0.045805
v -0.028946 1.262408 0.045805
v -0.009700 1.264840 0.045805
v 0.009700 1.264840 0.045805
v 0.028946 1.262408 0.045805
v 0.047736 1.257584 0.045805
v 0.065772 1.250443 0.045805
v 0.082772 1.241097 0.045805
v 0.098466 1.229694 0.045805
v 0.112608 1.216415 0.045805
v 0.124973 1.201467 0.045805
v 0.135368 1.185088 0.045805
v 0.143628 1.167535 0.045805
v 0.149622 1.149085 0.045805
v 0.153258 1.130030 0.045805
v -0.500000 1.445748 -0.041030
v -0.500000 1.445748 0.045805
v -0.374513 1.445748 -0.041030
v -0.216361 1.445748 -0.041030
v 0.164874 1.445748 -0.041030
v 0.500000 1.445748 -0.041030
v 0.332430 1.445748 -0.041030
v 0.500000 1.445748 0.045805
v 0.332430 1.445748 0.045805
v -0.374513 0.918941 0.045805
v -0.469655 1.419834 0.045805
v -0.468841 1.504542 0.022036
v -0.469655 1.419834 0.022036
v -0.407469 1.419299 0.022036
v -0.407103 1.504542 0.022036
v -0.374513 0.504542 0.045805
v -0.374513 0.504542 -0.041030
v 0.164874 0.918941 0.018200
v 0.164874 0.504542 0.018200
v 0.316901 0.504542 0.018200
v 0.332430 0.918941 0.018200
v 0.164874 0.504542 -0.016523
v 0.164874 0.918941 -0.016523
v 0.332430 0.918941 -0.016523
v 0.317718 0.504542 -0.016523
vn -0.666667 -0.666667 -0.333333
vn -0.408248 -0.408248 0.816497
vn -0.600000 0.000000 0.800000
vn -0.707107 0.000000 -0.707107
vn 0.447214 0.000000 -0.894427
vn 0.816497 -0.408248 -0.408248
vn 0.000000 -0.707107 -0.707107
vn 0.000000 0.000000 -1.000000
vn 0.333333 -0.666667 0.666667
vn 0.894427 0.000000 0.447214
vn 0.000000 0.000000 1.000000
vn 0.000000 -0.707107 0.707107
vn -1.000000 0.000000 0.000000
vn 0.304112 -0.830962 -0.465851
vn 0.627742 -0.636630 -0.447931
vn 0.297164 -0.830521 0.471092
vn 0.489933 -0.507657 0.708696
vn 0.627742 -0.636630 -0.447931
vn 0.669205 -0.154662 -0.726804
vn 0.728879 -0.372074 0.574714
vn 0.182574 -0.365148 -0.912871
vn 0.000000 -0.707107 0.707107
vn -0.600000 0.000000 -0.800000
vn -0.832050 0.000000 0.554700
vn -0.832050 0.000000 -0.554700
vn -0.301511 -0.904534 0.301511
vn 0.000000 0.000000 1.000000
vn 0.000000 0.000000 1.000000
vn -0.000000 0.000000 -1.000000
vn -0.000000 0.000000 -1.000000
vn -0.666667 0.333333 0.666667
vn 0.669501 0.663098 0.334767
vn -0.267261 0.801784 -0.534523
vn -0.235476 0.942922 0.235478
vn 0.000000 0.707107 0.707107
vn 0.000000 0.707107 -0.707107
vn 0.000000 0.707106 -0.707107
vn 0.707107 0.000000 -0.707107
vn -0.365785 -0.170021 -0.915038
vn 0.600000 0.000000 -0.800000
vn 0.707107 0.000000 0.707107
vn -0.120432 -0.236520 0.964134
vn -0.267261 0.801784 0.534522
vn 0.000000 0.832050 -0.554700
vn 0.000000 0.000000 1.000000
vn -0.316228 0.000000 0.948683
vn -0.062378 0.000000 0.998053
vn 0.000000 0.600000 -0.800000
vn 0.000000 0.707107 0.707107
vn 0.408248 0.816497 0.408248
vn 0.816497 0.408248 -0.408248
vn -0.235476 0.942922 0.235478
vn -0.363679 0.184188 0.913133
vn -0.268457 -0.527722 -0.805879
vn -0.826303 -0.382477 0.413442
vn 0.316228 0.000000 0.948683
vn 0.000000 0.000000 1.000000
vn 0.000000 0.000000 1.000000
vn 0.000000 0.000000 1.000000
vn -0.000000 0.000000 1.000000
vn 0.000000 0.000000 1.000000
vn -0.000000 0.000000 1.000000
vn 0.000000 0.000000 1.000000
vn 0.000000 0.000000 1.000000
vn 0.000000 0.000000 1.000000
vn 0.000000 0.000000 1.000000
vn -0.000000 0.000000 1.000000
vn -0.000000 0.000000 1.000000
vn 0.000000 0.000000 1.000000
vn 0.000000 0.000000 1.000000
vn -0.000000 0.000000 1.000000
vn 0.000000 0.000000 1.000000
vn 0.000000 0.000000 1.000000
vn 0.000000 0.000000 1.000000
vn 0.000000 0.000000 1.000000
vn 0.000000 0.000000 1.000000
vn 0.000000 0.000000 1.000000
vn -0.000000 0.000000 1.000000
vn -0.000000 0.000000 1.000000
vn 0.000000 0.000000 1.000000
vn 0.000000 0.000000 1.000000
vn -0.000000 0.000000 -1.000000
vn 0.600000 0.000000 0.800000
vn 0.365148 -0.182574 0.912871
vn 0.185720 0.363405 0.912932
vn 0.447193 -0.004297 0.894427
vn 0.820246 0.400522 0.408385
vn -0.327909 0.668714 0.667306
vn -0.894419 0.003840 0.447214
vn -0.666667 0.333333 0.666667
vn -0.832050 0.000000 0.554700
vn 0.669501 0.663098 0.334767
vn -0.327909 0.668714 0.667306
vn 0.408248 -0.816497 0.408248
vn 0.666667 -0.333333 -0.666667
vn -0.446900 0.016747 0.894427
vn -0.335781 -0.660065 -0.671986
vn -0.893864 0.031734 -0.447214
vn -0.268457 -0.527722 -0.805879
vn -0.335781 -0.660065 -0.671986
vt 0.125000 0.000000
vt 0.375000 0.000000
vt 0.375000 0.103600
vt 0.125000 0.103600
vt 0.406372 0.750000
vt 0.406372 0.646400
vt 0.445910 0.646400
vt 0.445910 0.750000
vt 0.406372 0.103600
vt 0.406372 0.000000
vt 0.445910 0.000000
vt 0.445910 0.103600
vt 0.375000 0.150456
vt 0.125000 0.150456
vt 0.611969 0.750000
vt 0.625000 0.750000
vt 0.611590 1.000000
vt 0.625000 1.000000
vt 0.875000 0.000000
vt 0.875000 0.013432
vt 0.625000 0.013202
vt 0.625000 0.000000
vt 0.406372 0.599544
vt 0.445910 0.599544
vt 0.541219 0.646400
vt 0.541219 0.750000
vt 0.541219 0.000000
vt 0.541219 0.103600
vt 0.375000 0.199472
vt 0.125000 0.199472
vt 0.406372 0.550528
vt 0.445910 0.550528
vt 0.375000 0.228888
vt 0.125000 0.228888
vt 0.541219 0.599544
vt 0.406372 0.521112
vt 0.445910 0.521112
vt 0.541219 0.550528
vt 0.375000 0.250000
vt 0.382790 0.250000
vt 0.375000 0.500000
vt 0.398224 0.250000
vt 0.445910 0.250000
vt 0.445910 0.500000
vt 0.406372 0.500000
vt 0.625000 0.103600
vt 0.875000 0.103600
vt 0.583107 0.646400
vt 0.583107 0.599544
vt 0.625000 0.599544
vt 0.625000 0.646400
vt 0.541219 0.521112
vt 0.625000 0.150456
vt 0.583107 0.150456
vt 0.583107 0.103600
vt 0.583107 0.550528
vt 0.625000 0.550528
vt 0.541219 0.250000
vt 0.541219 0.500000
vt 0.875000 0.150456
vt 0.625000 0.199472
vt 0.583107 0.199472
vt 0.583107 0.521112
vt 0.625000 0.521112
vt 0.445910 0.228278
vt 0.445910 0.199472
vt 0.875000 0.199472
vt 0.625000 0.228888
vt 0.583107 0.228888
vt 0.583107 0.500000
vt 0.583107 0.250000
vt 0.625000 0.250000
vt 0.625000 0.500000
vt 0.875000 0.228888
vt 0.398133 0.228689
vt 0.579429 0.750000
vt 0.625000 0.736568
vt 0.579225 0.000000
vt 0.611590 0.000000
vt 0.541219 0.150456
vt 0.541219 0.199472
vt 0.541219 0.228888
vt 0.541219 0.235302
vt 0.538619 0.151532
vt 0.538314 0.146692
vt 0.537406 0.141928
vt 0.535907 0.137315
vt 0.533842 0.132927
vt 0.531243 0.128832
vt 0.528152 0.125095
vt 0.524617 0.121775
vt 0.520693 0.118925
vt 0.516443 0.116588
vt 0.511934 0.114803
vt 0.507236 0.113597
vt 0.502425 0.112989
vt 0.497575 0.112989
vt 0.492764 0.113597
vt 0.488066 0.114803
vt 0.483557 0.116588
vt 0.479307 0.118925
vt 0.475383 0.121775
vt 0.471848 0.125095
vt 0.468757 0.128832
vt 0.466158 0.132927
vt 0.464093 0.137315
vt 0.462594 0.141928
vt 0.461686 0.146692
vt 0.461381 0.151532
vt 0.502425 0.190074
vt 0.507236 0.189467
vt 0.511934 0.188261
vt 0.516443 0.186475
vt 0.520693 0.184139
vt 0.524617 0.181288
vt 0.528152 0.177968
vt 0.531243 0.174231
vt 0.533842 0.170137
vt 0.535907 0.165748
vt 0.537406 0.161136
vt 0.538314 0.156372
vt 0.497575 0.190074
vt 0.492764 0.189467
vt 0.488066 0.188260
vt 0.483557 0.186475
vt 0.479307 0.184139
vt 0.475383 0.181288
vt 0.471848 0.177968
vt 0.468757 0.174231
vt 0.466158 0.170137
vt 0.464093 0.165748
vt 0.462594 0.161136
vt 0.461686 0.156372
vt 0.125000 0.235302
vt 0.375000 0.235302
vt 0.125000 0.250000
vt 0.406372 0.514699
vt 0.445910 0.514699
vt 0.541219 0.514699
vt 0.625000 0.514699
vt 0.583107 0.514699
vt 0.625000 0.235302
vt 0.875000 0.235302
vt 0.875000 0.250000
vt 0.583107 0.235302
vt 0.382586 0.228823
vt 0.375000 0.750000
vt 0.406372 1.000000
vt 0.375000 1.000000
vt 0.375000 0.646400
vt 0.375000 0.599544
vt 0.375000 0.550528
vt 0.375000 0.521112
vt 0.375000 0.514699
vt 0.579225 1.000000
f 1/1/1 2/2/2 3/3/3
f 1/1/1 3/3/3 4/4/4
f 5/5/5 6/6/6 7/7/7
f 5/5/5 7/7/7 8/8/8
f 9/9/9 10/10/10 11/11/11
f 9/9/9 11/11/11 12/12/12
f 4/4/4 3/3/3 13/13/13
f 4/4/4 13/13/13 14/14/4
f 15/15/14 16/16/15 18/17/16
f 16/16/15 17/18/17 18/17/16
f 16/19/18 19/20/19 20/21/20
f 16/19/15 20/21/20 17/22/17
f 21/6/21 22/23/8 23/24/8
f 21/6/21 23/24/8 24/7/7
f 25/8/8 26/7/7 27/25/7
f 25/8/8 27/25/7 28/26/8
f 29/12/22 30/11/11 31/27/11
f 29/12/22 31/27/11 32/28/22
f 14/14/4 13/13/13 33/29/13
f 14/14/4 33/29/13 34/30/23
f 22/23/8 35/31/8 36/32/8
f 22/23/8 36/32/8 23/24/8
f 24/7/7 37/25/7 27/25/7
f 24/7/7 27/25/7 26/7/7
f 34/30/23 33/29/13 38/33/24
f 34/30/23 38/33/24 39/34/25
f 24/7/7 23/24/8 40/35/8
f 24/7/7 40/35/8 37/25/7
f 41/28/26 42/12/26 29/12/22
f 41/28/26 29/12/22 32/28/22
f 42/12/26 41/12/26 43/12/27
f 42/12/26 43/12/27 44/12/28
f 35/31/8 45/36/29 36/32/8
f 45/36/29 46/37/30 36/32/8
f 40/35/8 23/24/8 36/32/8
f 40/35/8 36/32/8 47/38/8
f 48/39/31 49/40/32 54/41/33
f 49/40/32 50/42/34 54/41/33
f 50/42/34 51/43/35 52/44/36
f 50/42/34 53/45/37 54/41/33
f 50/42/34 52/44/36 53/45/37
f 20/21/20 19/20/19 56/46/10
f 19/20/19 55/47/38 56/46/10
f 57/48/39 58/49/8 59/50/40
f 57/48/39 59/50/40 55/51/38
f 47/38/8 36/32/8 46/37/30
f 47/38/8 46/37/30 60/52/8
f 61/53/41 62/54/11 63/55/42
f 61/53/41 63/55/42 56/46/10
f 59/50/40 58/49/8 64/56/8
f 59/50/40 64/56/8 65/57/38
f 52/44/36 51/43/35 66/58/43
f 52/44/36 66/58/43 67/59/44
f 56/46/10 55/47/38 59/60/40
f 56/46/10 59/60/40 61/53/41
f 66/58/43 51/58/35 68/58/11
f 66/58/43 68/58/11 69/58/45
f 70/61/41 71/62/11 62/54/11
f 70/61/41 62/54/11 61/53/41
f 65/57/38 64/56/8 72/63/8
f 65/57/38 72/63/8 73/64/38
f 51/43/35 74/65/46 75/66/47
f 51/43/35 75/66/47 68/43/11
f 74/65/46 42/12/26 75/66/47
f 42/12/26 44/12/28 75/66/47
f 61/53/41 59/60/40 65/67/38
f 61/53/41 65/67/38 70/61/41
f 76/68/41 77/69/11 71/62/11
f 76/68/41 71/62/11 70/61/41
f 78/70/48 79/71/49 80/72/50
f 78/70/48 80/72/50 81/73/51
f 70/61/41 65/67/38 73/74/38
f 70/61/41 73/74/38 76/68/41
f 50/42/52 82/75/53 51/43/35
f 82/75/53 74/65/46 51/43/35
f 83/76/54 57/48/39 19/77/19
f 83/76/54 16/16/15 15/15/14
f 83/76/54 19/77/19 16/16/15
f 57/48/39 55/51/38 19/77/19
f 63/55/42 84/78/55 18/79/16
f 63/55/42 20/21/20 56/46/10
f 63/55/42 17/22/17 20/21/20
f 63/55/42 18/79/16 17/22/17
f 41/28/26 85/80/56 86/81/11
f 41/28/26 69/58/45 43/28/27
f 41/28/26 86/81/11 87/82/46
f 41/28/26 87/82/46 88/83/46
f 41/28/26 88/83/46 66/58/43
f 41/28/26 66/58/43 69/58/45
f 89/84/57 90/85/11 43/28/27
f 89/84/57 43/28/27 69/58/45
f 90/85/11 91/86/11 43/28/27
f 91/86/11 92/87/58 43/28/27
f 92/87/58 93/88/59 43/28/27
f 93/88/59 94/89/60 43/28/61
f 94/89/60 95/90/11 43/28/27
f 95/90/11 96/91/11 43/28/27
f 96/91/11 97/92/62 43/28/27
f 97/92/62 98/93/63 43/28/64
f 98/93/63 99/94/65 43/28/64
f 99/94/65 100/95/11 43/28/27
f 100/95/11 101/96/11 43/28/27
f 101/96/11 102/97/11 43/28/27
f 102/97/11 103/98/66 43/28/27
f 103/98/66 104/99/67 44/12/28
f 103/98/66 44/12/28 43/28/27
f 104/99/67 105/100/68 44/12/28
f 105/100/68 106/101/69 44/12/28
f 106/101/69 107/102/11 44/12/28
f 107/102/11 108/103/11 44/12/28
f 108/103/11 109/104/70 44/12/28
f 109/104/70 110/105/71 44/12/28
f 110/105/71 111/106/72 44/12/73
f 111/106/72 112/107/74 44/12/28
f 112/107/74 113/108/11 44/12/28
f 113/108/11 114/109/75 44/12/28
f 68/43/11 75/66/47 69/58/45
f 75/66/47 127/110/76 69/58/45
f 127/110/76 128/111/11 69/58/45
f 128/111/11 129/112/11 69/58/45
f 129/112/11 130/113/11 69/58/45
f 130/113/11 131/114/11 69/58/45
f 131/114/11 132/115/11 69/58/45
f 132/115/11 133/116/11 69/58/45
f 133/116/11 134/117/11 69/58/45
f 134/117/11 135/118/11 69/58/45
f 135/118/11 136/119/11 69/58/45
f 136/119/11 137/120/11 69/58/45
f 137/120/11 138/121/11 69/58/45
f 138/121/11 89/84/57 69/58/45
f 75/66/47 44/12/28 114/109/75
f 75/66/47 126/122/11 127/110/76
f 75/66/47 125/123/77 126/122/11
f 75/66/47 124/124/78 125/123/77
f 75/66/47 123/125/79 124/124/78
f 75/66/47 122/126/80 123/125/79
f 75/66/47 121/127/81 122/126/80
f 75/66/47 120/128/81 121/127/81
f 75/66/47 119/129/11 120/128/81
f 75/66/47 118/130/11 119/129/11
f 75/66/47 117/131/11 118/130/11
f 75/66/47 116/132/11 117/131/11
f 75/66/47 115/133/11 116/132/11
f 75/66/47 114/109/75 115/133/11
f 139/134/4 140/135/24 48/39/31
f 139/134/4 48/39/31 54/136/33
f 141/137/8 53/45/37 52/44/36
f 141/137/8 52/44/36 142/138/82
f 143/139/8 142/138/82 52/44/36
f 143/139/8 52/44/36 67/59/44
f 144/140/38 145/141/8 78/70/48
f 144/140/38 78/70/48 81/73/51
f 146/142/83 144/143/38 81/144/51
f 146/142/83 81/144/51 80/72/50
f 79/71/49 147/145/11 146/142/83
f 79/71/49 146/142/83 80/72/50
f 39/34/25 38/33/24 140/135/24
f 39/34/25 140/135/24 139/134/4
f 45/36/29 141/137/8 142/138/82
f 45/36/29 142/138/82 46/37/30
f 60/52/8 46/37/30 142/138/82
f 60/52/8 142/138/82 143/139/8
f 73/64/38 72/63/8 145/141/8
f 73/64/38 145/141/8 144/140/38
f 76/68/41 73/74/38 144/143/38
f 76/68/41 144/143/38 146/142/83
f 146/142/83 147/145/11 77/69/11
f 146/142/83 77/69/11 76/68/41
f 3/3/3 148/9/84 82/75/53
f 3/3/3 38/33/24 13/13/13
f 3/3/3 149/146/85 38/33/24
f 3/3/3 82/75/53 149/146/85
f 148/9/84 42/12/26 74/65/46
f 148/9/84 74/65/46 82/75/53
f 38/33/24 33/29/13 13/13/13
f 150/40/86 151/146/87 152/75/88
f 150/40/86 152/75/88 153/42/89
f 38/33/24 149/146/85 140/135/24
f 149/146/85 49/40/32 48/39/31
f 149/146/85 48/39/90 140/135/91
f 49/40/92 149/146/85 151/146/87
f 49/40/32 151/146/87 150/40/86
f 149/146/85 82/75/53 152/75/88
f 149/146/85 152/75/88 151/146/87
f 82/75/53 50/42/34 153/42/89
f 82/75/53 153/42/89 152/75/93
f 2/2/2 154/10/94 148/9/84
f 2/2/2 148/9/84 3/3/3
f 1/147/1 155/5/95 154/148/94
f 1/147/1 154/148/94 2/149/2
f 4/150/4 21/6/21 155/5/95
f 4/150/4 155/5/95 1/147/1
f 14/151/4 22/23/8 21/6/21
f 14/151/4 21/6/21 4/150/4
f 34/152/23 35/31/8 22/23/8
f 34/152/23 22/23/8 14/151/4
f 39/153/25 45/36/29 34/152/23
f 45/36/29 35/31/8 34/152/23
f 139/154/4 141/137/8 45/36/29
f 139/154/4 45/36/29 39/153/25
f 54/41/33 53/45/37 141/137/8
f 54/41/33 141/137/8 139/154/4
f 84/155/55 83/76/54 18/17/16
f 83/76/54 15/15/14 18/17/16
f 37/25/7 40/35/8 58/49/8
f 37/25/7 58/49/8 57/48/39
f 64/56/8 58/49/8 40/35/8
f 64/56/8 40/35/8 47/38/8
f 72/63/8 64/56/8 47/38/8
f 72/63/8 47/38/8 60/52/8
f 145/141/8 72/63/8 60/52/8
f 145/141/8 60/52/8 143/139/8
f 78/70/48 145/141/8 143/139/8
f 78/70/48 143/139/8 67/59/44
f 67/59/44 66/58/43 79/71/49
f 67/59/44 79/71/49 78/70/48
f 66/58/43 88/83/46 147/145/11
f 66/58/43 147/145/11 79/71/49
f 77/69/11 147/145/11 88/83/46
f 77/69/11 88/83/46 87/82/46
f 71/62/11 77/69/11 87/82/46
f 71/62/11 87/82/46 86/81/11
f 62/54/11 71/62/11 86/81/11
f 62/54/11 86/81/11 85/80/56
f 63/55/42 62/54/11 85/80/56
f 63/55/42 85/80/56 41/28/26
f 156/28/12 157/27/11 158/78/96
f 156/28/12 158/78/96 159/55/55
f 160/26/8 161/25/7 162/48/97
f 160/26/8 162/48/97 163/76/98
f 148/9/84 154/10/94 10/10/10
f 148/9/84 10/10/10 9/9/9
f 42/12/26 148/9/84 9/9/9
f 42/12/26 9/9/9 12/12/12
f 84/78/55 63/55/42 159/55/55
f 84/78/55 159/55/55 158/78/96
f 63/55/42 41/28/26 156/28/12
f 63/55/42 156/28/12 159/55/55
f 37/25/7 57/48/39 162/48/97
f 37/25/7 162/48/97 161/25/7
f 57/48/39 83/76/99 163/76/98
f 57/48/39 163/76/98 162/48/100
f 155/5/95 21/6/21 6/6/6
f 155/5/95 6/6/6 5/5/5
f 21/6/21 24/7/7 7/7/7
f 21/6/21 7/7/7 6/6/6
